<mxfile host="app.diagrams.net" agent="Mozilla/5.0 (Macintosh; Intel Mac OS X 10_15_7) AppleWebKit/537.36 (KHTML, like Gecko) Chrome/132.0.0.0 Safari/537.36" version="26.0.10">
  <diagram name="Page-1" id="03018318-947c-dd8e-b7a3-06fadd420f32">
    <mxGraphModel dx="1080" dy="684" grid="1" gridSize="10" guides="1" tooltips="1" connect="1" arrows="1" fold="1" page="1" pageScale="1" pageWidth="1100" pageHeight="850" background="none" math="0" shadow="0">
      <root>
        <mxCell id="0" />
        <mxCell id="1" parent="0" />
        <mxCell id="677b7b8949515195-1" value="" style="whiteSpace=wrap;html=1;rounded=0;shadow=0;labelBackgroundColor=none;strokeColor=#000000;strokeWidth=1;fillColor=none;fontFamily=Verdana;fontSize=12;fontColor=#000000;align=center;comic=1;" parent="1" vertex="1">
          <mxGeometry x="20" y="40" width="1060" height="540" as="geometry" />
        </mxCell>
        <mxCell id="q4BZEvWAXVgxHDnkbYNj-131" value="Save" style="rounded=1;fillColor=#0057D8;strokeColor=none;html=1;whiteSpace=wrap;fontColor=#ffffff;align=center;verticalAlign=middle;fontStyle=0;fontSize=12;sketch=0;" parent="1" vertex="1">
          <mxGeometry x="50" y="523.5" width="86" height="33" as="geometry" />
        </mxCell>
        <mxCell id="zX-MKMj06BqSPDNbv460-1" value="&lt;font style=&quot;font-size: 18px;&quot;&gt;companyitassets/assets/hardware/add&lt;/font&gt;" style="html=1;strokeWidth=1;shadow=0;dashed=0;shape=mxgraph.ios7ui.url;fillColor=#e0e0e0;strokeColor=#c0c0c0;buttonText=;strokeColor2=#222222;fontColor=#222222;fontSize=8;spacingTop=2;align=center;whiteSpace=wrap;" parent="1" vertex="1">
          <mxGeometry x="20" width="1050" height="32.5" as="geometry" />
        </mxCell>
        <mxCell id="qXXK7IakLX90gNUS_IdI-1" value="&lt;font style=&quot;font-size: 20px;&quot;&gt;Add Asset&lt;/font&gt;" style="text;strokeColor=none;fillColor=none;html=1;fontSize=24;fontStyle=1;verticalAlign=middle;align=center;" parent="1" vertex="1">
          <mxGeometry x="50" y="60" width="210" height="40" as="geometry" />
        </mxCell>
        <mxCell id="qXXK7IakLX90gNUS_IdI-18" value="Go Back" style="html=1;shadow=0;dashed=0;shape=mxgraph.bootstrap.rrect;rSize=5;strokeColor=none;strokeWidth=1;fillColor=none;fontColor=#0085FC;whiteSpace=wrap;align=center;verticalAlign=middle;spacingLeft=0;fontStyle=0;fontSize=16;spacing=5;" parent="1" vertex="1">
          <mxGeometry x="160" y="520" width="70" height="40" as="geometry" />
        </mxCell>
        <mxCell id="UMHAYtXmoPYH3CVEdlvB-5" value="None" style="html=1;shadow=0;dashed=0;shape=mxgraph.bootstrap.rrect;rSize=5;strokeColor=none;strokeWidth=1;fillColor=#6C767D;fontColor=#ffffff;whiteSpace=wrap;align=right;verticalAlign=middle;fontStyle=0;fontSize=14;spacingRight=20;" parent="1" vertex="1">
          <mxGeometry x="50" y="190" width="140" height="30" as="geometry" />
        </mxCell>
        <mxCell id="UMHAYtXmoPYH3CVEdlvB-6" value="" style="shape=triangle;direction=south;fillColor=#ffffff;strokeColor=none;perimeter=none;" parent="UMHAYtXmoPYH3CVEdlvB-5" vertex="1">
          <mxGeometry x="1" y="0.5" width="10" height="5" relative="1" as="geometry">
            <mxPoint x="-17" y="-2.5" as="offset" />
          </mxGeometry>
        </mxCell>
        <mxCell id="UMHAYtXmoPYH3CVEdlvB-7" value="Model" style="fillColor=none;strokeColor=none;html=1;fontSize=11;fontStyle=0;align=left;fontColor=#596780;fontStyle=1;fontSize=11" parent="1" vertex="1">
          <mxGeometry x="50" y="170" width="240" height="20" as="geometry" />
        </mxCell>
        <mxCell id="UMHAYtXmoPYH3CVEdlvB-8" value="- SELECT -" style="html=1;shadow=0;dashed=0;shape=mxgraph.bootstrap.rrect;rSize=5;strokeColor=none;strokeWidth=1;fillColor=#6C767D;fontColor=#ffffff;whiteSpace=wrap;align=right;verticalAlign=middle;fontStyle=0;fontSize=14;spacingRight=20;" parent="1" vertex="1">
          <mxGeometry x="50" y="250" width="140" height="30" as="geometry" />
        </mxCell>
        <mxCell id="UMHAYtXmoPYH3CVEdlvB-9" value="" style="shape=triangle;direction=south;fillColor=#ffffff;strokeColor=none;perimeter=none;" parent="UMHAYtXmoPYH3CVEdlvB-8" vertex="1">
          <mxGeometry x="1" y="0.5" width="10" height="5" relative="1" as="geometry">
            <mxPoint x="-17" y="-2.5" as="offset" />
          </mxGeometry>
        </mxCell>
        <mxCell id="UMHAYtXmoPYH3CVEdlvB-10" value="Asset Type" style="fillColor=none;strokeColor=none;html=1;fontSize=11;fontStyle=0;align=left;fontColor=#596780;fontStyle=1;fontSize=11" parent="1" vertex="1">
          <mxGeometry x="50" y="230" width="240" height="20" as="geometry" />
        </mxCell>
        <mxCell id="NlCQKjgv_-PUSfm08U4q-1" value="Manufactorer" style="fillColor=none;strokeColor=none;html=1;fontSize=11;fontStyle=0;align=left;fontColor=#596780;fontStyle=1;fontSize=11" parent="1" vertex="1">
          <mxGeometry x="50" y="100" width="240" height="20" as="geometry" />
        </mxCell>
        <mxCell id="NlCQKjgv_-PUSfm08U4q-3" value="&lt;font style=&quot;font-size: 14px;&quot;&gt;Dell&lt;/font&gt;" style="fillColor=none;strokeColor=none;html=1;fontSize=11;fontStyle=0;align=left;fontColor=#596780;fontStyle=1;fontSize=11" parent="1" vertex="1">
          <mxGeometry x="50" y="120" width="240" height="30" as="geometry" />
        </mxCell>
        <mxCell id="NlCQKjgv_-PUSfm08U4q-4" value="Serial Number" style="fillColor=none;strokeColor=none;html=1;fontSize=11;fontStyle=0;align=left;fontColor=#596780;fontStyle=1;fontSize=11" parent="1" vertex="1">
          <mxGeometry x="50" y="290" width="240" height="20" as="geometry" />
        </mxCell>
        <mxCell id="NlCQKjgv_-PUSfm08U4q-5" value="" style="rounded=1;arcSize=9;fillColor=#F7F8F9;align=left;spacingLeft=5;strokeColor=#DEE1E6;html=1;strokeWidth=2;fontSize=12" parent="1" vertex="1">
          <mxGeometry x="50" y="315" width="290" height="33" as="geometry" />
        </mxCell>
        <mxCell id="NlCQKjgv_-PUSfm08U4q-6" value="Purchase Date" style="fillColor=none;strokeColor=none;html=1;fontSize=11;fontStyle=0;align=left;fontColor=#596780;fontStyle=1;fontSize=11" parent="1" vertex="1">
          <mxGeometry x="50" y="360" width="240" height="20" as="geometry" />
        </mxCell>
        <mxCell id="NlCQKjgv_-PUSfm08U4q-7" value="02-02-2025" style="rounded=1;arcSize=9;fillColor=#F7F8F9;align=left;spacingLeft=5;strokeColor=#DEE1E6;html=1;strokeWidth=2;fontSize=12" parent="1" vertex="1">
          <mxGeometry x="50" y="385.5" width="290" height="33" as="geometry" />
        </mxCell>
        <mxCell id="NlCQKjgv_-PUSfm08U4q-8" value="Purchase Price" style="fillColor=none;strokeColor=none;html=1;fontSize=11;fontStyle=0;align=left;fontColor=#596780;fontStyle=1;fontSize=11" parent="1" vertex="1">
          <mxGeometry x="50" y="430" width="240" height="20" as="geometry" />
        </mxCell>
        <mxCell id="NlCQKjgv_-PUSfm08U4q-9" value="" style="rounded=1;arcSize=9;fillColor=#F7F8F9;align=left;spacingLeft=5;strokeColor=#DEE1E6;html=1;strokeWidth=2;fontSize=12" parent="1" vertex="1">
          <mxGeometry x="50" y="450" width="290" height="33" as="geometry" />
        </mxCell>
        <mxCell id="NlCQKjgv_-PUSfm08U4q-10" value="" style="html=1;verticalLabelPosition=bottom;align=center;labelBackgroundColor=#ffffff;verticalAlign=top;strokeWidth=2;strokeColor=#0080F0;shadow=0;dashed=0;shape=mxgraph.ios7.icons.calendar;" parent="1" vertex="1">
          <mxGeometry x="310" y="392" width="20" height="20" as="geometry" />
        </mxCell>
      </root>
    </mxGraphModel>
  </diagram>
</mxfile>
